<svg width="25" height="26" viewBox="0 0 25 26" fill="none" xmlns="http://www.w3.org/2000/svg">
<path d="M23.8281 13H3.90625V4.96429C3.90625 3.97963 4.60718 3.17857 5.46875 3.17857C6.023 3.17857 6.51035 3.51032 6.78784 4.00893C5.98257 5.41557 6.0707 7.33348 7.12173 8.64258C6.91782 8.90558 6.92539 9.30753 7.1457 9.55932L7.69814 10.1907C7.92695 10.4522 8.29795 10.4522 8.52681 10.1907L13.1669 4.88772C13.3958 4.62623 13.3958 4.20223 13.1669 3.94068L12.6145 3.30932C12.3942 3.05753 12.0425 3.04894 11.8124 3.28192C10.9359 2.36289 9.74722 2.0861 8.67866 2.4245C7.9727 1.26267 6.79746 0.5 5.46875 0.5C3.31484 0.5 1.5625 2.50268 1.5625 4.96429V13H1.17188C0.524658 13 0 13.5996 0 14.3393V15.2321C0 15.9718 0.524658 16.5714 1.17188 16.5714H1.5625V18.3571C1.5625 19.9436 2.16611 21.3688 3.125 22.3497V24.1607C3.125 24.9004 3.64966 25.5 4.29688 25.5H5.07812C5.72534 25.5 6.25 24.9004 6.25 24.1607V23.7143H18.75V24.1607C18.75 24.9004 19.2747 25.5 19.9219 25.5H20.7031C21.3503 25.5 21.875 24.9004 21.875 24.1607V22.3497C22.8339 21.3688 23.4375 19.9436 23.4375 18.3571V16.5714H23.8281C24.4753 16.5714 25 15.9718 25 15.2321V14.3393C25 13.5996 24.4753 13 23.8281 13Z" fill="#6E6E6E" fill-opacity="0.71"/>
</svg>
