<svg width="25" height="26" viewBox="0 0 25 26" fill="none" xmlns="http://www.w3.org/2000/svg">
<g clip-path="url(#clip0_14416_105)">
<path d="M6.875 20.5C8.59805 20.5 10 18.5373 10 16.125C10 13.7127 8.59805 11.75 6.875 11.75C5.15195 11.75 3.75 13.7127 3.75 16.125C3.75 18.5373 5.15195 20.5 6.875 20.5ZM20.625 13.5H11.875C11.5297 13.5 11.25 13.8916 11.25 14.375V22.25H2.5V10.875C2.5 10.3916 2.22031 10 1.875 10H0.625C0.279687 10 0 10.3916 0 10.875V30.125C0 30.6084 0.279687 31 0.625 31H1.875C2.22031 31 2.5 30.6084 2.5 30.125V27.5H22.5V30.125C22.5 30.6084 22.7797 31 23.125 31H24.375C24.7203 31 25 30.6084 25 30.125V19.625C25 16.242 23.0414 13.5 20.625 13.5Z" fill="#6E6E6E" fill-opacity="0.71"/>
</g>
<defs>
<clipPath id="clip0_14416_105">
<rect width="25" height="25" fill="white" transform="translate(0 0.5)"/>
</clipPath>
</defs>
</svg>
