<svg width="15" height="20" viewBox="0 0 15 20" fill="none" xmlns="http://www.w3.org/2000/svg">
<path d="M6.72922 19.1167C1.05352 11.3 0 10.4977 0 7.625C0 3.68996 3.35785 0.5 7.5 0.5C11.6421 0.5 15 3.68996 15 7.625C15 10.4977 13.9465 11.3 8.27078 19.1167C7.89832 19.6278 7.10164 19.6278 6.72922 19.1167ZM7.5 10.5937C9.2259 10.5937 10.625 9.2646 10.625 7.625C10.625 5.9854 9.2259 4.65625 7.5 4.65625C5.7741 4.65625 4.375 5.9854 4.375 7.625C4.375 9.2646 5.7741 10.5937 7.5 10.5937Z" fill="#6E6E6E" fill-opacity="0.71"/>
</svg>
