<svg width="25" height="26" viewBox="0 0 25 26" fill="none" xmlns="http://www.w3.org/2000/svg">
<g clip-path="url(#clip0_14416_102)">
<path d="M25 6.75V2.0625C25 1.19971 24.3003 0.5 23.4375 0.5H18.75C17.8872 0.5 17.1875 1.19971 17.1875 2.0625H7.8125C7.8125 1.19971 7.11279 0.5 6.25 0.5H1.5625C0.699707 0.5 0 1.19971 0 2.0625V6.75C0 7.61279 0.699707 8.3125 1.5625 8.3125V17.6875C0.699707 17.6875 0 18.3872 0 19.25V23.9375C0 24.8003 0.699707 25.5 1.5625 25.5H6.25C7.11279 25.5 7.8125 24.8003 7.8125 23.9375H17.1875C17.1875 24.8003 17.8872 25.5 18.75 25.5H23.4375C24.3003 25.5 25 24.8003 25 23.9375V19.25C25 18.3872 24.3003 17.6875 23.4375 17.6875V8.3125C24.3003 8.3125 25 7.61279 25 6.75ZM20.3125 3.625H21.875V5.1875H20.3125V3.625ZM3.125 3.625H4.6875V5.1875H3.125V3.625ZM4.6875 22.375H3.125V20.8125H4.6875V22.375ZM21.875 22.375H20.3125V20.8125H21.875V22.375ZM20.3125 17.6875H18.75C17.8872 17.6875 17.1875 18.3872 17.1875 19.25V20.8125H7.8125V19.25C7.8125 18.3872 7.11279 17.6875 6.25 17.6875H4.6875V8.3125H6.25C7.11279 8.3125 7.8125 7.61279 7.8125 6.75V5.1875H17.1875V6.75C17.1875 7.61279 17.8872 8.3125 18.75 8.3125H20.3125V17.6875Z" fill="#6E6E6E" fill-opacity="0.71"/>
</g>
<defs>
<clipPath id="clip0_14416_102">
<rect width="25" height="25" fill="white" transform="translate(0 0.5)"/>
</clipPath>
</defs>
</svg>
